<svg width="32" height="32" viewBox="0 0 32 32" fill="none" xmlns="http://www.w3.org/2000/svg">
<g clip-path="url(#clip0_14112_1929)">
<path d="M15.3375 21.2107C14.5375 22.0793 14.1489 23.1993 14.1489 24.5937C14.1489 25.988 14.5375 27.108 15.3375 27.9766C16.1375 28.8451 17.2575 29.2566 18.6975 29.2566C20.1375 29.2566 21.2575 28.8223 22.0575 27.9766C22.8576 27.108 23.2461 25.988 23.2461 24.5937C23.2461 23.1993 22.8576 22.0793 22.0575 21.2107C21.2575 20.3422 20.1375 19.9308 18.6975 19.9308C17.2346 19.9308 16.1146 20.3422 15.3375 21.2107ZM31.8633 16.845C31.8633 8.09076 24.7547 0.982178 16.0003 0.982178C7.24603 0.982178 0.137451 8.09076 0.137451 16.845C0.137451 23.0622 3.70317 28.4108 8.89175 31.0166V5.14219H14.5832V17.3479H14.6517C15.3146 16.4565 16.1603 15.8393 17.166 15.4736C18.1946 15.1079 19.2917 14.925 20.4803 14.925C21.7832 14.925 22.9718 15.1993 24.0004 15.7479C25.029 16.2965 25.9204 17.0279 26.629 17.9193C27.3604 18.8336 27.909 19.8622 28.2976 21.0508C28.6861 22.2165 28.8918 23.4507 28.8918 24.7537C28.8918 25.2566 28.8461 25.7366 28.8004 26.1937C30.7433 23.565 31.8633 20.3422 31.8633 16.845Z" fill="white"/>
</g>
<defs>
<clipPath id="clip0_14112_1929">
<rect width="32" height="30.1714" fill="white" transform="translate(0 0.914062)"/>
</clipPath>
</defs>
</svg>
