<svg width="135" height="50" viewBox="0 0 135 50" fill="none" xmlns="http://www.w3.org/2000/svg">
<path d="M41.3441 5.6814H46.9786V34.241H41.3441V5.6814ZM68.6065 34.241H63.1975V31.7478H63.1223C62.9218 32.1001 62.6589 32.4526 62.3334 32.8054C62.0329 33.158 61.6574 33.4727 61.2063 33.7498C60.7556 34.0268 60.2423 34.2535 59.6662 34.4299C59.0904 34.6061 58.4643 34.6942 57.7881 34.6942C56.3607 34.6942 55.1963 34.4803 54.2947 34.052C53.4182 33.5986 52.7296 32.9816 52.2288 32.201C51.7529 31.4202 51.4274 30.501 51.2522 29.4434C51.1017 28.3856 51.0267 27.2396 51.0267 26.0054V15.8812H56.6612V24.8721C56.6612 25.401 56.6739 25.9551 56.6987 26.5343C56.7489 27.0887 56.8617 27.6048 57.0367 28.0831C57.2371 28.5617 57.5253 28.952 57.9008 29.2544C58.3015 29.5566 58.865 29.7076 59.5914 29.7076C60.3173 29.7076 60.906 29.5816 61.3567 29.3299C61.8074 29.0526 62.1457 28.7003 62.3709 28.2721C62.6214 27.8189 62.7841 27.3151 62.8593 26.761C62.9343 26.207 62.9721 25.6277 62.9721 25.0233V15.8812H68.6065V34.241Z" fill="white"/>
<path d="M83.4535 30.1609H83.5285L92.2435 7.49463H95.1737L84.8059 34.2408H82.1012L71.9966 7.49463H75.0019L83.4535 30.1609ZM101.604 9.76123C101.604 10.2901 101.416 10.7309 101.04 11.0834C100.665 11.4108 100.252 11.5745 99.801 11.5745C99.3499 11.5745 98.9369 11.4108 98.5612 11.0834C98.1857 10.7309 97.9977 10.2901 97.9977 9.76123C97.9977 9.23236 98.1857 8.80423 98.5612 8.47681C98.9369 8.12423 99.3499 7.94794 99.801 7.94794C100.252 7.94794 100.665 8.12423 101.04 8.47681C101.416 8.80423 101.604 9.23236 101.604 9.76123ZM101.04 34.2408H98.5612V16.5611H101.04V34.2408ZM119.719 34.2408C119.668 33.7622 119.631 33.2964 119.606 32.843C119.606 32.3646 119.606 31.886 119.606 31.4075H119.531C119.255 31.886 118.905 32.3267 118.479 32.7295C118.053 33.1326 117.577 33.4852 117.051 33.7876C116.525 34.0644 115.962 34.2785 115.361 34.4298C114.785 34.6061 114.209 34.694 113.633 34.694C111.379 34.694 109.714 34.1024 108.637 32.9185C107.56 31.7097 107.022 29.9973 107.022 27.781V16.5611H109.501V26.3454C109.501 27.3275 109.576 28.1964 109.726 28.952C109.877 29.7074 110.127 30.3498 110.478 30.8788C110.853 31.3823 111.342 31.7728 111.943 32.0496C112.569 32.3017 113.345 32.4275 114.272 32.4275C114.397 32.4275 114.748 32.3772 115.323 32.2763C115.899 32.1757 116.5 31.8986 117.127 31.4454C117.778 30.992 118.354 30.3121 118.854 29.4052C119.355 28.4986 119.606 27.2395 119.606 25.6275V16.5611H122.085V30.3498C122.085 30.8284 122.097 31.4326 122.122 32.1631C122.173 32.8936 122.223 33.586 122.273 34.2408H119.719Z" fill="white"/>
<path d="M17.4267 23.3237C16.5095 24.3253 16.064 25.6165 16.064 27.2241C16.064 28.8318 16.5095 30.1232 17.4267 31.1246C18.3439 32.1262 19.628 32.6005 21.279 32.6005C22.9299 32.6005 24.2141 32.0998 25.1313 31.1246C26.0483 30.1232 26.4938 28.8318 26.4938 27.2241C26.4938 25.6165 26.0483 24.3253 25.1313 23.3237C24.2141 22.3224 22.9299 21.848 21.279 21.848C19.6018 21.848 18.3177 22.3224 17.4267 23.3237ZM36.3733 18.2901C36.3733 8.19629 28.2233 0 18.1867 0C8.14994 0 0 8.19629 0 18.2901C0 25.4584 4.08807 31.6255 10.0367 34.6298V4.79652H16.5619V18.8698H16.6406C17.4005 17.842 18.3701 17.1305 19.5232 16.7088C20.7024 16.2871 21.9603 16.0763 23.323 16.0763C24.8167 16.0763 26.1794 16.3925 27.3587 17.025C28.5379 17.6575 29.5599 18.5009 30.3721 19.5287C31.2108 20.5829 31.8398 21.7687 32.2851 23.1392C32.7306 24.4834 32.9665 25.9066 32.9665 27.4086C32.9665 27.9886 32.9141 28.5419 32.8618 29.069C35.0891 26.0383 36.3733 22.3224 36.3733 18.2901Z" fill="white"/>
<path d="M130.923 17.3676H131.29V14.7058L132.417 17.3676H132.653L133.78 14.7058V17.3676H134.146V14.1787H133.596L132.522 16.6824L131.447 14.1787H130.897V17.3676H130.923ZM130.478 14.1787H128.014V14.5213H129.063V17.3676H129.429V14.5213H130.478V14.1787Z" fill="white"/>
<path d="M11.408 50.0001C11.1874 50.0001 10.9926 49.9626 10.8235 49.8876C10.6545 49.8097 10.5213 49.7001 10.4239 49.5588C10.3264 49.4146 10.2763 49.2402 10.2734 49.0354H10.8536C10.8593 49.1767 10.9095 49.2964 11.004 49.3944C11.1014 49.4896 11.2347 49.5372 11.4037 49.5372C11.5498 49.5372 11.6659 49.5026 11.7518 49.4334C11.8378 49.3613 11.8807 49.2661 11.8807 49.1479C11.8807 49.0239 11.8421 48.9273 11.7647 48.858C11.6902 48.7888 11.5899 48.7326 11.4639 48.6893C11.3378 48.6461 11.2032 48.5999 11.0599 48.5509C10.8278 48.4702 10.6502 48.3663 10.527 48.2394C10.4067 48.1126 10.3465 47.9438 10.3465 47.7333C10.3436 47.5545 10.3852 47.4017 10.4711 47.2748C10.5599 47.145 10.6803 47.0455 10.8321 46.9763C10.984 46.9042 11.1587 46.8682 11.3564 46.8682C11.557 46.8682 11.7332 46.9042 11.885 46.9763C12.0398 47.0484 12.1601 47.1493 12.246 47.2791C12.3349 47.4089 12.3821 47.5632 12.3879 47.742H11.7991C11.7962 47.6353 11.7547 47.5416 11.6745 47.4608C11.5971 47.3772 11.4882 47.3354 11.3478 47.3354C11.2275 47.3325 11.1258 47.3627 11.0427 47.4262C10.9625 47.4868 10.9224 47.5762 10.9224 47.6944C10.9224 47.7953 10.9539 47.8761 11.0169 47.9366C11.08 47.9943 11.1659 48.0433 11.2748 48.0837C11.3837 48.1241 11.5083 48.1673 11.6487 48.2135C11.7977 48.2654 11.9338 48.326 12.057 48.3952C12.1802 48.4644 12.279 48.5567 12.3535 48.672C12.428 48.7845 12.4652 48.9301 12.4652 49.1089C12.4652 49.2675 12.4251 49.4146 12.3449 49.5502C12.2647 49.6857 12.1458 49.7953 11.9882 49.8789C11.8306 49.9597 11.6372 50.0001 11.408 50.0001ZM16.4931 50.0001C16.2725 50.0001 16.0734 49.9568 15.8957 49.8703C15.7181 49.7809 15.5763 49.6468 15.4703 49.468C15.3671 49.2892 15.3156 49.0628 15.3156 48.7888V46.9201H15.8656V48.7932C15.8656 49.0296 15.9215 49.2055 16.0333 49.3209C16.1479 49.4363 16.3054 49.4939 16.506 49.4939C16.7037 49.4939 16.8598 49.4363 16.9744 49.3209C17.089 49.2055 17.1463 49.0296 17.1463 48.7932V46.9201H17.6964V48.7888C17.6964 49.0628 17.642 49.2892 17.5331 49.468C17.4243 49.6468 17.2781 49.7809 17.0948 49.8703C16.9143 49.9568 16.7137 50.0001 16.4931 50.0001ZM20.6456 49.9481V46.9201H21.7586C21.9992 46.9201 22.1984 46.9604 22.3559 47.0412C22.5135 47.1219 22.631 47.233 22.7083 47.3743C22.7857 47.5156 22.8244 47.6742 22.8244 47.8501C22.8244 48.0174 22.7871 48.1717 22.7126 48.313C22.6382 48.4514 22.5221 48.5639 22.3645 48.6504C22.207 48.734 22.005 48.7758 21.7586 48.7758H21.1957V49.9481H20.6456ZM21.1957 48.326H21.7243C21.9162 48.326 22.0537 48.2841 22.1368 48.2005C22.2227 48.114 22.2657 47.9972 22.2657 47.8501C22.2657 47.7002 22.2227 47.5834 22.1368 47.4997C22.0537 47.4132 21.9162 47.37 21.7243 47.37H21.1957V48.326ZM25.6436 49.9481V46.9201H27.6076V47.3656H26.1937V48.1962H27.4787V48.6288H26.1937V49.5026H27.6076V49.9481H25.6436ZM30.5157 49.9481V46.9201H31.6202C31.8609 46.9201 32.0585 46.9619 32.2133 47.0455C32.3708 47.1263 32.4883 47.2373 32.5657 47.3786C32.643 47.517 32.6817 47.6713 32.6817 47.8415C32.6817 48.026 32.633 48.1947 32.5356 48.3476C32.441 48.5004 32.292 48.6115 32.0886 48.6807L32.7118 49.9481H32.08L31.5213 48.7542H31.0658V49.9481H30.5157ZM31.0658 48.3476H31.5858C31.7692 48.3476 31.9038 48.3029 31.9898 48.2135C32.0757 48.1241 32.1187 48.0059 32.1187 47.8588C32.1187 47.7146 32.0757 47.5992 31.9898 47.5127C31.9067 47.4262 31.7706 47.3829 31.5815 47.3829H31.0658V48.3476ZM35.5809 49.9481V46.9201H36.694C36.9347 46.9201 37.1338 46.9604 37.2914 47.0412C37.449 47.1219 37.5664 47.233 37.6438 47.3743C37.7211 47.5156 37.7598 47.6742 37.7598 47.8501C37.7598 48.0174 37.7226 48.1717 37.6481 48.313C37.5736 48.4514 37.4576 48.5639 37.3 48.6504C37.1424 48.734 36.9404 48.7758 36.694 48.7758H36.131V49.9481H35.5809ZM36.131 48.326H36.6596C36.8516 48.326 36.9891 48.2841 37.0722 48.2005C37.1582 48.114 37.2011 47.9972 37.2011 47.8501C37.2011 47.7002 37.1582 47.5834 37.0722 47.4997C36.9891 47.4132 36.8516 47.37 36.6596 47.37H36.131V48.326ZM41.9887 50.0001C41.6878 50.0001 41.4243 49.9337 41.1979 49.8011C40.9744 49.6684 40.7982 49.4853 40.6693 49.2517C40.5432 49.0152 40.4802 48.7427 40.4802 48.4341C40.4802 48.1255 40.5432 47.8545 40.6693 47.6209C40.7982 47.3844 40.9744 47.1998 41.1979 47.0672C41.4243 46.9345 41.6878 46.8682 41.9887 46.8682C42.2866 46.8682 42.5488 46.9345 42.7751 47.0672C43.0015 47.1998 43.1777 47.3844 43.3038 47.6209C43.4298 47.8545 43.4928 48.1255 43.4928 48.4341C43.4928 48.7427 43.4298 49.0152 43.3038 49.2517C43.1777 49.4853 43.0015 49.6684 42.7751 49.8011C42.5488 49.9337 42.2866 50.0001 41.9887 50.0001ZM41.9887 49.5026C42.2752 49.5026 42.503 49.4074 42.672 49.2171C42.8439 49.0267 42.9299 48.7658 42.9299 48.4341C42.9299 48.1025 42.8439 47.8415 42.672 47.6511C42.503 47.4608 42.2752 47.3656 41.9887 47.3656C41.7022 47.3656 41.473 47.4608 41.3011 47.6511C41.1292 47.8415 41.0432 48.1025 41.0432 48.4341C41.0432 48.7658 41.1292 49.0267 41.3011 49.2171C41.473 49.4074 41.7022 49.5026 41.9887 49.5026ZM46.8462 49.9481L46.0511 46.9201H46.6399L47.1814 49.3296L47.8175 46.9201H48.4234L49.0423 49.3296L49.5838 46.9201H50.1768L49.3603 49.9481H48.7071L48.1097 47.703L47.4951 49.9481H46.8462ZM52.9631 49.9481V46.9201H54.9272V47.3656H53.5132V48.1962H54.7982V48.6288H53.5132V49.5026H54.9272V49.9481H52.9631ZM57.8352 49.9481V46.9201H58.9397C59.1804 46.9201 59.3781 46.9619 59.5328 47.0455C59.6904 47.1263 59.8078 47.2373 59.8852 47.3786C59.9625 47.517 60.0012 47.6713 60.0012 47.8415C60.0012 48.026 59.9525 48.1947 59.8551 48.3476C59.7605 48.5004 59.6116 48.6115 59.4081 48.6807L60.0313 49.9481H59.3996L58.8409 48.7542H58.3853V49.9481H57.8352ZM58.3853 48.3476H58.9053C59.0887 48.3476 59.2233 48.3029 59.3093 48.2135C59.3952 48.1241 59.4382 48.0059 59.4382 47.8588C59.4382 47.7146 59.3952 47.5992 59.3093 47.5127C59.2262 47.4262 59.0901 47.3829 58.901 47.3829H58.3853V48.3476ZM62.9004 49.9481V46.9201H64.8645V47.3656H63.4505V48.1962H64.7355V48.6288H63.4505V49.5026H64.8645V49.9481H62.9004ZM67.7725 49.9481V46.9201H68.7996C69.152 46.9201 69.4414 46.9835 69.6678 47.1104C69.897 47.2344 70.066 47.4103 70.1749 47.6382C70.2866 47.8631 70.3425 48.1284 70.3425 48.4341C70.3425 48.7398 70.2866 49.0066 70.1749 49.2344C70.066 49.4593 69.897 49.6352 69.6678 49.7621C69.4414 49.8861 69.152 49.9481 68.7996 49.9481H67.7725ZM68.3226 49.4723H68.7739C69.026 49.4723 69.2251 49.4319 69.3712 49.3512C69.5173 49.2675 69.6219 49.1493 69.685 48.9965C69.748 48.8407 69.7795 48.6533 69.7795 48.4341C69.7795 48.2178 69.748 48.0318 69.685 47.8761C69.6219 47.7203 69.5173 47.6007 69.3712 47.517C69.2251 47.4334 69.026 47.3916 68.7739 47.3916H68.3226V49.4723ZM76.627 49.9481V46.9201H77.8347C78.147 46.9201 78.3848 46.9936 78.5481 47.1407C78.7143 47.2849 78.7973 47.4709 78.7973 47.6987C78.7973 47.8891 78.7458 48.0419 78.6426 48.1573C78.5424 48.2697 78.4192 48.3461 78.273 48.3865C78.4449 48.4211 78.5868 48.5076 78.6985 48.6461C78.8102 48.7816 78.8661 48.9402 78.8661 49.1219C78.8661 49.3613 78.7802 49.5588 78.6082 49.7145C78.4363 49.8703 78.1928 49.9481 77.8777 49.9481H76.627ZM77.1771 48.1919H77.753C77.9077 48.1919 78.0266 48.1558 78.1097 48.0837C78.1928 48.0116 78.2344 47.9092 78.2344 47.7766C78.2344 47.6497 78.1928 47.5502 78.1097 47.4781C78.0295 47.4031 77.9077 47.3656 77.7444 47.3656H77.1771V48.1919ZM77.1771 49.4983H77.7917C77.955 49.4983 78.0811 49.4608 78.1699 49.3858C78.2616 49.3079 78.3074 49.1998 78.3074 49.0614C78.3074 48.92 78.2601 48.809 78.1656 48.7283C78.0711 48.6475 77.9436 48.6071 77.7831 48.6071H77.1771V49.4983ZM82.3737 49.9481V48.871L81.3637 46.9201H81.9869L82.653 48.3173L83.3149 46.9201H83.9294L82.9238 48.871V49.9481H82.3737ZM91.4433 50.0001C91.1396 50.0001 90.8789 49.9352 90.6612 49.8054C90.4434 49.6727 90.2758 49.4896 90.1583 49.256C90.0409 49.0195 89.9821 48.747 89.9821 48.4384C89.9821 48.1299 90.0409 47.8573 90.1583 47.6209C90.2758 47.3844 90.4434 47.1998 90.6612 47.0672C90.8789 46.9345 91.1396 46.8682 91.4433 46.8682C91.8043 46.8682 92.0994 46.959 92.3286 47.1407C92.5607 47.3195 92.7054 47.5718 92.7627 47.8977H92.1567C92.1195 47.7333 92.0393 47.605 91.9161 47.5127C91.7957 47.4175 91.6353 47.37 91.4347 47.37C91.1568 47.37 90.9391 47.4651 90.7815 47.6555C90.6239 47.8458 90.5451 48.1068 90.5451 48.4384C90.5451 48.7701 90.6239 49.0311 90.7815 49.2214C90.9391 49.4089 91.1568 49.5026 91.4347 49.5026C91.6353 49.5026 91.7957 49.4593 91.9161 49.3728C92.0393 49.2834 92.1195 49.1608 92.1567 49.0051H92.7627C92.7054 49.3166 92.5607 49.5603 92.3286 49.7362C92.0994 49.9121 91.8043 50.0001 91.4433 50.0001ZM95.406 49.9481L96.5062 46.9201H97.125L98.2252 49.9481H97.6408L97.4001 49.2474H96.2268L95.9819 49.9481H95.406ZM96.3772 48.8148H97.2497L96.8113 47.556L96.3772 48.8148ZM101 49.9481V46.9201H102.105C102.345 46.9201 102.543 46.9619 102.698 47.0455C102.855 47.1263 102.973 47.2373 103.05 47.3786C103.128 47.517 103.166 47.6713 103.166 47.8415C103.166 48.026 103.118 48.1947 103.02 48.3476C102.926 48.5004 102.777 48.6115 102.573 48.6807L103.196 49.9481H102.565L102.006 48.7542H101.55V49.9481H101ZM101.55 48.3476H102.07C102.254 48.3476 102.388 48.3029 102.474 48.2135C102.56 48.1241 102.603 48.0059 102.603 47.8588C102.603 47.7146 102.56 47.5992 102.474 47.5127C102.391 47.4262 102.255 47.3829 102.066 47.3829H101.55V48.3476ZM107.381 50.0001C107.097 50.0001 106.849 49.9352 106.637 49.8054C106.425 49.6756 106.26 49.4954 106.143 49.2647C106.025 49.0311 105.967 48.76 105.967 48.4514C105.967 48.14 106.027 47.866 106.147 47.6295C106.27 47.3901 106.444 47.2041 106.667 47.0715C106.894 46.9359 107.161 46.8682 107.471 46.8682C107.823 46.8682 108.115 46.9532 108.348 47.1234C108.58 47.2935 108.73 47.5286 108.799 47.8285H108.184C108.138 47.6872 108.055 47.5776 107.935 47.4997C107.815 47.419 107.66 47.3786 107.471 47.3786C107.17 47.3786 106.938 47.4752 106.775 47.6684C106.611 47.8588 106.53 48.1212 106.53 48.4557C106.53 48.7903 106.61 49.0498 106.77 49.2344C106.934 49.4161 107.154 49.5069 107.432 49.5069C107.704 49.5069 107.909 49.4334 108.047 49.2863C108.187 49.1363 108.272 48.9402 108.3 48.698H107.54V48.2827H108.855V49.9481H108.348L108.305 49.5502C108.207 49.6944 108.085 49.8054 107.939 49.8833C107.793 49.9611 107.607 50.0001 107.381 50.0001ZM111.777 49.9481V46.9201H112.327V49.9481H111.777ZM115.298 49.9481V46.9201H115.848V49.5156H117.18V49.9481H115.298ZM120.052 49.9481V46.9201H120.602V49.5156H121.935V49.9481H120.052Z" fill="white"/>
</svg>
